<?xml version="1.0" encoding="UTF-8" standalone="no"?>
<!-- Created with Inkscape (http://www.inkscape.org/) -->
<svg id="svg2" xmlns:rdf="http://www.w3.org/1999/02/22-rdf-syntax-ns#" xmlns="http://www.w3.org/2000/svg" viewBox="0 0 449.35 81.174" version="1.1" xmlns:cc="http://creativecommons.org/ns#" xmlns:dc="http://purl.org/dc/elements/1.1/">
 <metadata id="metadata7">
  <rdf:RDF>
   <cc:Work rdf:about="">
    <dc:format>image/svg+xml</dc:format>
    <dc:type rdf:resource="http://purl.org/dc/dcmitype/StillImage"/>
    <dc:title/>
   </cc:Work>
  </rdf:RDF>
 </metadata>
 <g id="layer1" transform="translate(-25.442303,-23.66066)">
  <g id="text2985" style="letter-spacing:0px;word-spacing:0px;" font-weight="bold" fill-opacity="0.94117647" transform="scale(0.98621975,1.0139728)" font-style="normal" font-stretch="normal" line-height="125%" font-size="58.25302505px" font-variant="normal" font-family="Segoe UI" fill="#222">
   <path id="path2997" d="m80.425,101.15-16.179,0,0-7.2191-0.2048,0c-3.6864,5.666-9.0964,8.499-16.23,8.499-6.5535,0-11.827-2.3125-15.82-6.9375-3.9935-4.625-5.9903-11.085-5.9903-19.379-0.000004-8.6697,2.2015-15.616,6.6047-20.838,4.4031-5.2222,10.172-7.8334,17.305-7.8334,6.7582,0.000054,11.469,2.4235,14.131,7.2703h0.2048v-31.18h16.179zm-15.872-25.497,0-3.9423c-0.000042-3.4132-0.98989-6.2462-2.9695-8.499-1.9797-2.2527-4.5567-3.3791-7.731-3.3791-3.584,0.000041-6.3828,1.408-8.3966,4.2239-2.0138,2.816-3.0208,6.6815-3.0207,11.597-0.00002,4.6079,0.97276,8.1577,2.9183,10.649,1.9455,2.4917,4.642,3.7375,8.0894,3.7375,3.2767,0.000011,5.9476-1.3141,8.0126-3.9423s3.0975-6.1097,3.0975-10.445z"/>
   <path id="path2999" d="m133.77,99.255c-3.6522,2.1162-8.9257,3.1743-15.82,3.1743-8.0553,0-14.575-2.4405-19.558-7.3214-4.9834-4.881-7.475-11.178-7.475-18.892-0.000003-8.9086,2.6709-15.931,8.0126-21.068,5.3417-5.1369,12.484-7.7054,21.427-7.7054,6.178,0.000054,10.649,0.81924,13.414,2.4576v13.721c-3.3792-2.5258-7.1508-3.7887-11.315-3.7887-4.6421,0.000041-8.3199,1.3568-11.033,4.0703-2.7136,2.7136-4.0703,6.4596-4.0703,11.238-0.00002,4.6421,1.297,8.2857,3.8911,10.931,2.594,2.6453,6.1609,3.9679,10.701,3.9679,4.0276,0.000011,7.9699-1.2629,11.827-3.7887z"/>
   <path id="path3001" d="m152.62,40.428c-2.7306,0.000061-4.9663-0.81059-6.7071-2.432-1.7408-1.6212-2.6112-3.6095-2.6112-5.9647-0.00001-2.4233,0.87038-4.403,2.6112-5.9391,1.7408-1.5359,3.9764-2.3039,6.7071-2.304,2.7647,0.000078,5.0089,0.76806,6.7327,2.304,1.7237,1.536,2.5855,3.5157,2.5856,5.9391-0.00003,2.4576-0.86187,4.4714-2.5856,6.0415-1.7237,1.5702-3.9679,2.3552-6.7327,2.3552zm7.987,60.722-16.179,0,0-52.428,16.179,0z"/>
   <path id="path3003" d="m225.63,101.15-16.179,0,0-7.2191-0.20479,0c-3.6864,5.666-9.0964,8.499-16.23,8.499-6.5535,0-11.827-2.3125-15.82-6.9375-3.9935-4.625-5.9903-11.085-5.9903-19.379-0.00001-8.6697,2.2016-15.616,6.6047-20.838,4.4031-5.2222,10.172-7.8334,17.305-7.8334,6.7582,0.000054,11.469,2.4235,14.131,7.2703h0.20479v-31.18h16.179zm-15.872-25.497,0-3.9423c-0.00005-3.4132-0.98989-6.2462-2.9695-8.499-1.9797-2.2527-4.5567-3.3791-7.731-3.3791-3.584,0.000041-6.3828,1.408-8.3966,4.2239-2.0138,2.816-3.0208,6.6815-3.0207,11.597-0.00002,4.6079,0.97276,8.1577,2.9183,10.649,1.9455,2.4917,4.642,3.7375,8.0894,3.7375,3.2767,0.000011,5.9476-1.3141,8.0126-3.9423s3.0975-6.1097,3.0975-10.445z"/>
   <path id="path3005" d="m273.45,63.313c-1.9456-1.0581-4.2154-1.5871-6.8095-1.5872-3.5157,0.000039-6.2634,1.2885-8.243,3.8655-1.9797,2.577-2.9696,6.0842-2.9695,10.521v25.036h-16.179v-52.428h16.179v9.7278h0.2048c2.5599-7.0995,7.1678-10.649,13.824-10.649,1.7066,0.000053,3.0378,0.20485,3.9935,0.61439z"/>
  </g>
  <g id="g3881" fill="#5669f3" transform="matrix(0.99731002,0,0,0.99731002,0.76300524,1.5888305)">
   <rect id="rect3801" transform="matrix(1,0,-0.34201888,0.93969308,0,0)" height="15.967" width="186" y="24.591" x="297.52"/>
   <rect id="rect3801-4" transform="matrix(1,0,-0.34201888,0.93969308,0,0)" height="15.967" width="122.76" y="59.289" x="309.39"/>
   <rect id="rect3801-4-0" transform="matrix(1,0,-0.34201888,0.93969308,0,0)" height="15.967" width="61.38" y="93.988" x="321.25"/>
  </g>
 </g>
</svg>
